C:\Users\r0593348\3dpredictsim\Results\Batchsim_tmt_linear\Pog_s1_tmt_aCst_d00_k1000_ig24_pas_GRF.mot
nRows=20
nColumns=19

name C:\Users\r0593348\3dpredictsim\Results\Batchsim_tmt_linear\Pog_s1_tmt_aCst_d00_k1000_ig24_pas_GRF.mot
datacolumns 19
datarows 20
range 0.5524406080 0.7623680390
endheader
time 	ground_force_vx	ground_force_vy	ground_force_vz	ground_force_px	ground_force_py	ground_force_pz	1_ground_force_vx	1_ground_force_vy	1_ground_force_vz	1_ground_force_px	1_ground_force_py	1_ground_force_pz	ground_torque_x	ground_torque_y	ground_torque_z	1_ground_torque_x	1_ground_torque_y	1_ground_torque_z
        0.5524406080	       93.7065152995	      470.3919833991	        5.1423855352	        0.3697776032	        0.0000000000	        0.0353491526	     -100.8954526729	       93.2936632982	      -42.5262503520	        0.8569245748	        0.0000000000	       -0.0379442298	        0.0000000000	        0.0000000000	        0.0000000000	        0.0000000000	        0.0000000000	        0.0000000000	
        0.5634894202	       75.5402736591	      386.9834764444	       10.2394488859	        0.3739077678	        0.0000000000	        0.0341210621	      -93.5197305420	      194.4339979928	      -75.8851755543	        0.8632701959	        0.0000000000	       -0.0362094081	        0.0000000000	        0.0000000000	        0.0000000000	        0.0000000000	        0.0000000000	        0.0000000000	
        0.5745382323	       55.2112335467	      299.7106592177	        7.5129199915	        0.3802973407	        0.0000000000	        0.0316091802	      -47.4619565870	      352.9375158248	      -17.2734984236	        0.8674874851	        0.0000000000	       -0.0345309069	        0.0000000000	        0.0000000000	        0.0000000000	        0.0000000000	        0.0000000000	        0.0000000000	
        0.5855870445	       26.7090748183	      198.3394292018	        6.1398004761	        0.3927024548	        0.0000000000	        0.0260112159	      -52.5543770093	      524.9198267673	        2.3092640861	        0.8734416717	        0.0000000000	       -0.0357302569	        0.0000000000	        0.0000000000	        0.0000000000	        0.0000000000	        0.0000000000	        0.0000000000	
        0.5966358566	        7.3895061359	      138.1953856464	       10.5667968934	        0.4054733312	        0.0000000000	        0.0194833213	      -85.8778598821	      701.6008563852	        9.6048690601	        0.8813485196	        0.0000000000	       -0.0381331446	        0.0000000000	        0.0000000000	        0.0000000000	        0.0000000000	        0.0000000000	        0.0000000000	
        0.6076846688	        1.2542540566	      108.4373317594	       11.9120893624	        0.4054139730	        0.0000000000	        0.0197790494	     -106.2528343084	      807.0513315990	       12.7735492527	        0.8867381301	        0.0000000000	       -0.0396560624	        0.0000000000	        0.0000000000	        0.0000000000	        0.0000000000	        0.0000000000	        0.0000000000	
        0.6187334810	       -2.6371925843	       71.0744101733	       11.0667479763	        0.4058824649	        0.0000000000	        0.0198424971	     -109.9835997065	      842.5376487161	       13.5439309641	        0.8904510344	        0.0000000000	       -0.0405627337	        0.0000000000	        0.0000000000	        0.0000000000	        0.0000000000	        0.0000000000	        0.0000000000	
        0.6297822931	       -8.4666051160	       29.5338118848	        5.9361758920	        0.4055450192	        0.0000000000	        0.0196495698	     -104.9495159491	      837.3523284072	       13.7436496375	        0.8934966354	        0.0000000000	       -0.0410876719	        0.0000000000	        0.0000000000	        0.0000000000	        0.0000000000	        0.0000000000	        0.0000000000	
        0.6408311053	        0.1142921579	       -0.1138115713	       -0.0033672728	        0.0000000000	        0.0000000000	        0.0000000000	      -95.7351468869	      818.8582497401	       14.0853714726	        0.8966692876	        0.0000000000	       -0.0413454146	        0.0000000000	        0.0000000000	        0.0000000000	        0.0000000000	        0.0000000000	        0.0000000000	
        0.6518799174	        0.0001586866	       -0.0001296847	        0.0000084014	        0.0000000000	        0.0000000000	        0.0000000000	      -83.7363575291	      789.7205598368	       14.8476297254	        0.8999680319	        0.0000000000	       -0.0414492054	        0.0000000000	        0.0000000000	        0.0000000000	        0.0000000000	        0.0000000000	        0.0000000000	
        0.6629287296	        0.0000618265	       -0.0000439143	        0.0000044380	        0.0000000000	        0.0000000000	        0.0000000000	      -72.7769134719	      757.0905360487	       15.2593974210	        0.9038302215	        0.0000000000	       -0.0414635522	        0.0000000000	        0.0000000000	        0.0000000000	        0.0000000000	        0.0000000000	        0.0000000000	
        0.6739775418	        0.0005736766	       -0.0003651202	        0.0000464261	        0.0000000000	        0.0000000000	        0.0000000000	      -63.1906671131	      726.2670312768	       15.4731282418	        0.9082270669	        0.0000000000	       -0.0413713101	        0.0000000000	        0.0000000000	        0.0000000000	        0.0000000000	        0.0000000000	        0.0000000000	
        0.6850263539	        0.0057344745	       -0.0033437819	        0.0004939817	        0.0000000000	        0.0000000000	        0.0000000000	      -53.6948659206	      695.4970256810	       16.0212926880	        0.9125644841	        0.0000000000	       -0.0412860660	        0.0000000000	        0.0000000000	        0.0000000000	        0.0000000000	        0.0000000000	        0.0000000000	
        0.6960751661	       -0.0291927890	        0.0158293743	       -0.0026220683	        0.0000000000	        0.0000000000	        0.0000000000	      -44.4058210617	      666.3409629072	       16.5478947057	        0.9167885041	        0.0000000000	       -0.0412629513	        0.0000000000	        0.0000000000	        0.0000000000	        0.0000000000	        0.0000000000	        0.0000000000	
        0.7071239782	       -0.0201956217	        0.0102961961	       -0.0018740022	        0.0000000000	        0.0000000000	        0.0000000000	      -36.4429498412	      641.0656450007	       17.0269981384	        0.9211011873	        0.0000000000	       -0.0412906435	        0.0000000000	        0.0000000000	        0.0000000000	        0.0000000000	        0.0000000000	        0.0000000000	
        0.7181727904	       -0.0140666781	        0.0068033931	       -0.0013395444	        0.0000000000	        0.0000000000	        0.0000000000	      -29.9072921789	      620.2749051733	       17.6647381762	        0.9254546218	        0.0000000000	       -0.0413421766	        0.0000000000	        0.0000000000	        0.0000000000	        0.0000000000	        0.0000000000	        0.0000000000	
        0.7292216026	       -0.0126056142	        0.0058282920	       -0.0012203184	        0.0000000000	        0.0000000000	        0.0000000000	      -24.2690297024	      604.1556121988	       18.1112920189	        0.9300448060	        0.0000000000	       -0.0414018792	        0.0000000000	        0.0000000000	        0.0000000000	        0.0000000000	        0.0000000000	        0.0000000000	
        0.7402704147	       -0.0150938933	        0.0067099178	       -0.0014769580	        0.0000000000	        0.0000000000	        0.0000000000	      -20.0091857520	      592.8768065233	       18.2800461002	        0.9350326228	        0.0000000000	       -0.0414418649	        0.0000000000	        0.0000000000	        0.0000000000	        0.0000000000	        0.0000000000	        0.0000000000	
        0.7513192269	       -0.0233105169	        0.0100116448	       -0.0022852220	        0.0000000000	        0.0000000000	        0.0000000000	      -16.9605950529	      585.8181492641	       18.1993826858	        0.9403378816	        0.0000000000	       -0.0414410629	        0.0000000000	        0.0000000000	        0.0000000000	        0.0000000000	        0.0000000000	        0.0000000000	
        0.7623680390	       -0.0433758830	        0.0180769037	       -0.0042302294	        0.0000000000	        0.0000000000	        0.0000000000	      -15.2716652110	      582.5276732502	       18.1520679556	        0.9459564193	        0.0000000000	       -0.0413845360	        0.0000000000	        0.0000000000	        0.0000000000	        0.0000000000	        0.0000000000	        0.0000000000	
